<mxfile host="app.diagrams.net" modified="2024-04-10T17:08:27.951Z" agent="Mozilla/5.0 (Macintosh; Intel Mac OS X 10_15_7) AppleWebKit/537.36 (KHTML, like Gecko) Chrome/123.0.0.0 Safari/537.36" etag="fNqs2VGvJQSSuI3_Wryc" version="24.2.3" type="github">
  <diagram name="Page-1" id="74e2e168-ea6b-b213-b513-2b3c1d86103e">
    <mxGraphModel dx="954" dy="739" grid="0" gridSize="10" guides="1" tooltips="1" connect="1" arrows="1" fold="1" page="1" pageScale="1" pageWidth="1100" pageHeight="850" background="none" math="0" shadow="0">
      <root>
        <mxCell id="0" />
        <mxCell id="1" parent="0" />
        <mxCell id="77e6c97f196da883-1" value="报名" style="swimlane;html=1;childLayout=stackLayout;startSize=20;rounded=0;shadow=0;labelBackgroundColor=none;strokeWidth=1;fontFamily=Verdana;fontSize=8;align=center;" parent="1" vertex="1">
          <mxGeometry x="70" y="52" width="1261" height="3086" as="geometry" />
        </mxCell>
        <mxCell id="77e6c97f196da883-2" value="活动" style="swimlane;html=1;startSize=20;" parent="77e6c97f196da883-1" vertex="1">
          <mxGeometry y="20" width="688" height="3066" as="geometry" />
        </mxCell>
        <mxCell id="7L1N_wUHKzrK2IpRh_ph-5" value="" style="edgeStyle=none;curved=1;rounded=0;orthogonalLoop=1;jettySize=auto;html=1;fontSize=12;startSize=8;endSize=8;" parent="77e6c97f196da883-2" source="7L1N_wUHKzrK2IpRh_ph-1" target="7L1N_wUHKzrK2IpRh_ph-4" edge="1">
          <mxGeometry relative="1" as="geometry" />
        </mxCell>
        <mxCell id="7L1N_wUHKzrK2IpRh_ph-1" value="开始" style="rounded=1;whiteSpace=wrap;html=1;" parent="77e6c97f196da883-2" vertex="1">
          <mxGeometry x="93" y="64" width="120" height="60" as="geometry" />
        </mxCell>
        <mxCell id="7L1N_wUHKzrK2IpRh_ph-7" value="" style="edgeStyle=none;curved=1;rounded=0;orthogonalLoop=1;jettySize=auto;html=1;fontSize=12;startSize=8;endSize=8;" parent="77e6c97f196da883-2" source="7L1N_wUHKzrK2IpRh_ph-4" target="7L1N_wUHKzrK2IpRh_ph-6" edge="1">
          <mxGeometry relative="1" as="geometry" />
        </mxCell>
        <mxCell id="7L1N_wUHKzrK2IpRh_ph-10" value="" style="edgeStyle=none;curved=1;rounded=0;orthogonalLoop=1;jettySize=auto;html=1;fontSize=12;startSize=8;endSize=8;" parent="77e6c97f196da883-2" source="7L1N_wUHKzrK2IpRh_ph-4" target="7L1N_wUHKzrK2IpRh_ph-9" edge="1">
          <mxGeometry relative="1" as="geometry" />
        </mxCell>
        <mxCell id="7L1N_wUHKzrK2IpRh_ph-4" value="活动是否进行中" style="rhombus;whiteSpace=wrap;html=1;rounded=1;" parent="77e6c97f196da883-2" vertex="1">
          <mxGeometry x="113" y="234" width="80" height="80" as="geometry" />
        </mxCell>
        <mxCell id="7L1N_wUHKzrK2IpRh_ph-23" value="" style="edgeStyle=none;curved=1;rounded=0;orthogonalLoop=1;jettySize=auto;html=1;fontSize=12;startSize=8;endSize=8;" parent="77e6c97f196da883-2" source="7L1N_wUHKzrK2IpRh_ph-6" target="7L1N_wUHKzrK2IpRh_ph-22" edge="1">
          <mxGeometry relative="1" as="geometry" />
        </mxCell>
        <mxCell id="7L1N_wUHKzrK2IpRh_ph-6" value="查询用户总代uid" style="whiteSpace=wrap;html=1;rounded=1;" parent="77e6c97f196da883-2" vertex="1">
          <mxGeometry x="96" y="546" width="120" height="60" as="geometry" />
        </mxCell>
        <mxCell id="7L1N_wUHKzrK2IpRh_ph-12" value="" style="edgeStyle=none;curved=1;rounded=0;orthogonalLoop=1;jettySize=auto;html=1;fontSize=12;startSize=8;endSize=8;" parent="77e6c97f196da883-2" source="7L1N_wUHKzrK2IpRh_ph-9" target="7L1N_wUHKzrK2IpRh_ph-11" edge="1">
          <mxGeometry relative="1" as="geometry" />
        </mxCell>
        <mxCell id="7L1N_wUHKzrK2IpRh_ph-17" value="" style="edgeStyle=none;curved=1;rounded=0;orthogonalLoop=1;jettySize=auto;html=1;fontSize=12;startSize=8;endSize=8;" parent="77e6c97f196da883-2" source="7L1N_wUHKzrK2IpRh_ph-9" target="7L1N_wUHKzrK2IpRh_ph-16" edge="1">
          <mxGeometry relative="1" as="geometry" />
        </mxCell>
        <mxCell id="7L1N_wUHKzrK2IpRh_ph-9" value="活动未开始" style="rhombus;whiteSpace=wrap;html=1;rounded=1;" parent="77e6c97f196da883-2" vertex="1">
          <mxGeometry x="313" y="234" width="80" height="80" as="geometry" />
        </mxCell>
        <mxCell id="7L1N_wUHKzrK2IpRh_ph-15" value="" style="edgeStyle=none;curved=1;rounded=0;orthogonalLoop=1;jettySize=auto;html=1;fontSize=12;startSize=8;endSize=8;" parent="77e6c97f196da883-2" source="7L1N_wUHKzrK2IpRh_ph-11" target="7L1N_wUHKzrK2IpRh_ph-14" edge="1">
          <mxGeometry relative="1" as="geometry" />
        </mxCell>
        <mxCell id="7L1N_wUHKzrK2IpRh_ph-11" value="活动未开始" style="whiteSpace=wrap;html=1;rounded=1;" parent="77e6c97f196da883-2" vertex="1">
          <mxGeometry x="493" y="244" width="120" height="60" as="geometry" />
        </mxCell>
        <mxCell id="7L1N_wUHKzrK2IpRh_ph-14" value="结束" style="whiteSpace=wrap;html=1;rounded=1;" parent="77e6c97f196da883-2" vertex="1">
          <mxGeometry x="493" y="444" width="120" height="60" as="geometry" />
        </mxCell>
        <mxCell id="7L1N_wUHKzrK2IpRh_ph-19" style="edgeStyle=none;curved=1;rounded=0;orthogonalLoop=1;jettySize=auto;html=1;entryX=0;entryY=0.5;entryDx=0;entryDy=0;fontSize=12;startSize=8;endSize=8;" parent="77e6c97f196da883-2" source="7L1N_wUHKzrK2IpRh_ph-16" target="7L1N_wUHKzrK2IpRh_ph-14" edge="1">
          <mxGeometry relative="1" as="geometry" />
        </mxCell>
        <mxCell id="7L1N_wUHKzrK2IpRh_ph-16" value="活动已结束" style="whiteSpace=wrap;html=1;rounded=1;" parent="77e6c97f196da883-2" vertex="1">
          <mxGeometry x="293" y="444" width="120" height="60" as="geometry" />
        </mxCell>
        <mxCell id="7L1N_wUHKzrK2IpRh_ph-25" value="" style="edgeStyle=none;curved=1;rounded=0;orthogonalLoop=1;jettySize=auto;html=1;fontSize=12;startSize=8;endSize=8;" parent="77e6c97f196da883-2" source="7L1N_wUHKzrK2IpRh_ph-22" target="7L1N_wUHKzrK2IpRh_ph-24" edge="1">
          <mxGeometry relative="1" as="geometry" />
        </mxCell>
        <mxCell id="7L1N_wUHKzrK2IpRh_ph-30" value="" style="edgeStyle=none;curved=1;rounded=0;orthogonalLoop=1;jettySize=auto;html=1;fontSize=12;startSize=8;endSize=8;" parent="77e6c97f196da883-2" source="7L1N_wUHKzrK2IpRh_ph-22" target="7L1N_wUHKzrK2IpRh_ph-29" edge="1">
          <mxGeometry relative="1" as="geometry" />
        </mxCell>
        <mxCell id="7L1N_wUHKzrK2IpRh_ph-22" value="是否在开放名单" style="rhombus;whiteSpace=wrap;html=1;rounded=1;" parent="77e6c97f196da883-2" vertex="1">
          <mxGeometry x="116" y="716" width="80" height="80" as="geometry" />
        </mxCell>
        <mxCell id="7L1N_wUHKzrK2IpRh_ph-28" value="" style="edgeStyle=none;curved=1;rounded=0;orthogonalLoop=1;jettySize=auto;html=1;fontSize=12;startSize=8;endSize=8;" parent="77e6c97f196da883-2" source="7L1N_wUHKzrK2IpRh_ph-24" target="7L1N_wUHKzrK2IpRh_ph-27" edge="1">
          <mxGeometry relative="1" as="geometry" />
        </mxCell>
        <mxCell id="7L1N_wUHKzrK2IpRh_ph-24" value="仅对指定用户开放" style="whiteSpace=wrap;html=1;rounded=1;" parent="77e6c97f196da883-2" vertex="1">
          <mxGeometry x="296" y="726" width="120" height="60" as="geometry" />
        </mxCell>
        <mxCell id="7L1N_wUHKzrK2IpRh_ph-27" value="结束" style="whiteSpace=wrap;html=1;rounded=1;" parent="77e6c97f196da883-2" vertex="1">
          <mxGeometry x="536" y="726" width="120" height="60" as="geometry" />
        </mxCell>
        <mxCell id="7L1N_wUHKzrK2IpRh_ph-32" value="" style="edgeStyle=none;curved=1;rounded=0;orthogonalLoop=1;jettySize=auto;html=1;fontSize=12;startSize=8;endSize=8;" parent="77e6c97f196da883-2" source="7L1N_wUHKzrK2IpRh_ph-29" target="7L1N_wUHKzrK2IpRh_ph-31" edge="1">
          <mxGeometry relative="1" as="geometry" />
        </mxCell>
        <mxCell id="7L1N_wUHKzrK2IpRh_ph-37" value="" style="edgeStyle=none;curved=1;rounded=0;orthogonalLoop=1;jettySize=auto;html=1;fontSize=12;startSize=8;endSize=8;" parent="77e6c97f196da883-2" source="7L1N_wUHKzrK2IpRh_ph-29" target="7L1N_wUHKzrK2IpRh_ph-36" edge="1">
          <mxGeometry relative="1" as="geometry" />
        </mxCell>
        <mxCell id="7L1N_wUHKzrK2IpRh_ph-29" value="已报名&amp;amp;未淘汰" style="rhombus;whiteSpace=wrap;html=1;rounded=1;" parent="77e6c97f196da883-2" vertex="1">
          <mxGeometry x="116" y="916" width="80" height="80" as="geometry" />
        </mxCell>
        <mxCell id="7L1N_wUHKzrK2IpRh_ph-35" value="" style="edgeStyle=none;curved=1;rounded=0;orthogonalLoop=1;jettySize=auto;html=1;fontSize=12;startSize=8;endSize=8;" parent="77e6c97f196da883-2" source="7L1N_wUHKzrK2IpRh_ph-31" target="7L1N_wUHKzrK2IpRh_ph-34" edge="1">
          <mxGeometry relative="1" as="geometry" />
        </mxCell>
        <mxCell id="7L1N_wUHKzrK2IpRh_ph-31" value="去交易" style="whiteSpace=wrap;html=1;rounded=1;" parent="77e6c97f196da883-2" vertex="1">
          <mxGeometry x="296" y="926" width="120" height="60" as="geometry" />
        </mxCell>
        <mxCell id="7L1N_wUHKzrK2IpRh_ph-34" value="结束" style="whiteSpace=wrap;html=1;rounded=1;" parent="77e6c97f196da883-2" vertex="1">
          <mxGeometry x="536" y="926" width="120" height="60" as="geometry" />
        </mxCell>
        <mxCell id="7L1N_wUHKzrK2IpRh_ph-39" value="" style="edgeStyle=none;curved=1;rounded=0;orthogonalLoop=1;jettySize=auto;html=1;fontSize=12;startSize=8;endSize=8;" parent="77e6c97f196da883-2" source="7L1N_wUHKzrK2IpRh_ph-36" target="7L1N_wUHKzrK2IpRh_ph-38" edge="1">
          <mxGeometry relative="1" as="geometry" />
        </mxCell>
        <mxCell id="7L1N_wUHKzrK2IpRh_ph-85" style="edgeStyle=none;curved=1;rounded=0;orthogonalLoop=1;jettySize=auto;html=1;fontSize=12;startSize=8;endSize=8;" parent="77e6c97f196da883-2" source="7L1N_wUHKzrK2IpRh_ph-36" target="7L1N_wUHKzrK2IpRh_ph-43" edge="1">
          <mxGeometry relative="1" as="geometry" />
        </mxCell>
        <mxCell id="7L1N_wUHKzrK2IpRh_ph-36" value="剩余次数&amp;gt;0" style="rhombus;whiteSpace=wrap;html=1;rounded=1;" parent="77e6c97f196da883-2" vertex="1">
          <mxGeometry x="116" y="1116" width="80" height="79" as="geometry" />
        </mxCell>
        <mxCell id="7L1N_wUHKzrK2IpRh_ph-42" value="" style="edgeStyle=none;curved=1;rounded=0;orthogonalLoop=1;jettySize=auto;html=1;fontSize=12;startSize=8;endSize=8;" parent="77e6c97f196da883-2" source="7L1N_wUHKzrK2IpRh_ph-38" target="7L1N_wUHKzrK2IpRh_ph-41" edge="1">
          <mxGeometry relative="1" as="geometry" />
        </mxCell>
        <mxCell id="7L1N_wUHKzrK2IpRh_ph-38" value="无剩余报名次数" style="whiteSpace=wrap;html=1;rounded=1;" parent="77e6c97f196da883-2" vertex="1">
          <mxGeometry x="296" y="1126" width="120" height="60" as="geometry" />
        </mxCell>
        <mxCell id="7L1N_wUHKzrK2IpRh_ph-41" value="结束" style="whiteSpace=wrap;html=1;rounded=1;" parent="77e6c97f196da883-2" vertex="1">
          <mxGeometry x="536" y="1126" width="120" height="60" as="geometry" />
        </mxCell>
        <mxCell id="7L1N_wUHKzrK2IpRh_ph-48" value="" style="edgeStyle=none;curved=1;rounded=0;orthogonalLoop=1;jettySize=auto;html=1;fontSize=12;startSize=8;endSize=8;" parent="77e6c97f196da883-2" source="7L1N_wUHKzrK2IpRh_ph-43" target="7L1N_wUHKzrK2IpRh_ph-47" edge="1">
          <mxGeometry relative="1" as="geometry" />
        </mxCell>
        <mxCell id="7L1N_wUHKzrK2IpRh_ph-43" value="查询合约持仓（不含跟单）" style="whiteSpace=wrap;html=1;rounded=1;" parent="77e6c97f196da883-2" vertex="1">
          <mxGeometry x="96" y="1326" width="120" height="60" as="geometry" />
        </mxCell>
        <mxCell id="7L1N_wUHKzrK2IpRh_ph-50" value="" style="edgeStyle=none;curved=1;rounded=0;orthogonalLoop=1;jettySize=auto;html=1;fontSize=12;startSize=8;endSize=8;" parent="77e6c97f196da883-2" source="7L1N_wUHKzrK2IpRh_ph-47" target="7L1N_wUHKzrK2IpRh_ph-49" edge="1">
          <mxGeometry relative="1" as="geometry" />
        </mxCell>
        <mxCell id="7L1N_wUHKzrK2IpRh_ph-55" value="" style="edgeStyle=none;curved=1;rounded=0;orthogonalLoop=1;jettySize=auto;html=1;fontSize=12;startSize=8;endSize=8;" parent="77e6c97f196da883-2" source="7L1N_wUHKzrK2IpRh_ph-47" target="7L1N_wUHKzrK2IpRh_ph-54" edge="1">
          <mxGeometry relative="1" as="geometry" />
        </mxCell>
        <mxCell id="7L1N_wUHKzrK2IpRh_ph-47" value="有持仓" style="rhombus;whiteSpace=wrap;html=1;rounded=1;" parent="77e6c97f196da883-2" vertex="1">
          <mxGeometry x="116" y="1496" width="80" height="80" as="geometry" />
        </mxCell>
        <mxCell id="7L1N_wUHKzrK2IpRh_ph-52" value="" style="edgeStyle=none;curved=1;rounded=0;orthogonalLoop=1;jettySize=auto;html=1;fontSize=12;startSize=8;endSize=8;" parent="77e6c97f196da883-2" source="7L1N_wUHKzrK2IpRh_ph-49" target="7L1N_wUHKzrK2IpRh_ph-51" edge="1">
          <mxGeometry relative="1" as="geometry" />
        </mxCell>
        <mxCell id="7L1N_wUHKzrK2IpRh_ph-49" value="提示有仓位，引导去平仓" style="whiteSpace=wrap;html=1;rounded=1;" parent="77e6c97f196da883-2" vertex="1">
          <mxGeometry x="296" y="1506" width="120" height="60" as="geometry" />
        </mxCell>
        <mxCell id="7L1N_wUHKzrK2IpRh_ph-51" value="结束" style="whiteSpace=wrap;html=1;rounded=1;" parent="77e6c97f196da883-2" vertex="1">
          <mxGeometry x="536" y="1506" width="120" height="60" as="geometry" />
        </mxCell>
        <mxCell id="7L1N_wUHKzrK2IpRh_ph-59" value="" style="edgeStyle=none;curved=1;rounded=0;orthogonalLoop=1;jettySize=auto;html=1;fontSize=12;startSize=8;endSize=8;" parent="77e6c97f196da883-2" source="7L1N_wUHKzrK2IpRh_ph-54" target="7L1N_wUHKzrK2IpRh_ph-58" edge="1">
          <mxGeometry relative="1" as="geometry" />
        </mxCell>
        <mxCell id="7L1N_wUHKzrK2IpRh_ph-54" value="查询合约保证金可划转金额" style="whiteSpace=wrap;html=1;rounded=1;" parent="77e6c97f196da883-2" vertex="1">
          <mxGeometry x="96" y="1706" width="120" height="60" as="geometry" />
        </mxCell>
        <mxCell id="7L1N_wUHKzrK2IpRh_ph-61" value="" style="edgeStyle=none;curved=1;rounded=0;orthogonalLoop=1;jettySize=auto;html=1;fontSize=12;startSize=8;endSize=8;" parent="77e6c97f196da883-2" source="7L1N_wUHKzrK2IpRh_ph-58" target="7L1N_wUHKzrK2IpRh_ph-60" edge="1">
          <mxGeometry relative="1" as="geometry" />
        </mxCell>
        <mxCell id="5FPc_xpcKpvYvvMMIjn3-3" style="edgeStyle=none;curved=1;rounded=0;orthogonalLoop=1;jettySize=auto;html=1;entryX=0.5;entryY=0;entryDx=0;entryDy=0;fontSize=12;startSize=8;endSize=8;" edge="1" parent="77e6c97f196da883-2" source="7L1N_wUHKzrK2IpRh_ph-58" target="5FPc_xpcKpvYvvMMIjn3-2">
          <mxGeometry relative="1" as="geometry" />
        </mxCell>
        <mxCell id="7L1N_wUHKzrK2IpRh_ph-58" value="合约保证金可划转&amp;gt;报名费" style="rhombus;whiteSpace=wrap;html=1;rounded=1;" parent="77e6c97f196da883-2" vertex="1">
          <mxGeometry x="116" y="1876" width="80" height="80" as="geometry" />
        </mxCell>
        <mxCell id="7L1N_wUHKzrK2IpRh_ph-64" value="" style="edgeStyle=none;curved=1;rounded=0;orthogonalLoop=1;jettySize=auto;html=1;fontSize=12;startSize=8;endSize=8;" parent="77e6c97f196da883-2" source="7L1N_wUHKzrK2IpRh_ph-60" target="7L1N_wUHKzrK2IpRh_ph-63" edge="1">
          <mxGeometry relative="1" as="geometry" />
        </mxCell>
        <mxCell id="7L1N_wUHKzrK2IpRh_ph-60" value="提示保证金不足，引导划转保证金" style="whiteSpace=wrap;html=1;rounded=1;" parent="77e6c97f196da883-2" vertex="1">
          <mxGeometry x="296" y="1886" width="120" height="60" as="geometry" />
        </mxCell>
        <mxCell id="7L1N_wUHKzrK2IpRh_ph-63" value="结束" style="whiteSpace=wrap;html=1;rounded=1;" parent="77e6c97f196da883-2" vertex="1">
          <mxGeometry x="536" y="1886" width="120" height="60" as="geometry" />
        </mxCell>
        <mxCell id="7L1N_wUHKzrK2IpRh_ph-70" value="" style="edgeStyle=none;curved=1;rounded=0;orthogonalLoop=1;jettySize=auto;html=1;fontSize=12;startSize=8;endSize=8;" parent="77e6c97f196da883-2" source="7L1N_wUHKzrK2IpRh_ph-65" target="7L1N_wUHKzrK2IpRh_ph-69" edge="1">
          <mxGeometry relative="1" as="geometry" />
        </mxCell>
        <mxCell id="7L1N_wUHKzrK2IpRh_ph-65" value="划转报名费" style="whiteSpace=wrap;html=1;rounded=1;" parent="77e6c97f196da883-2" vertex="1">
          <mxGeometry x="96" y="2369" width="120" height="60" as="geometry" />
        </mxCell>
        <mxCell id="7L1N_wUHKzrK2IpRh_ph-72" value="" style="edgeStyle=none;curved=1;rounded=0;orthogonalLoop=1;jettySize=auto;html=1;fontSize=12;startSize=8;endSize=8;" parent="77e6c97f196da883-2" source="7L1N_wUHKzrK2IpRh_ph-69" target="7L1N_wUHKzrK2IpRh_ph-71" edge="1">
          <mxGeometry relative="1" as="geometry" />
        </mxCell>
        <mxCell id="7L1N_wUHKzrK2IpRh_ph-77" value="" style="edgeStyle=none;curved=1;rounded=0;orthogonalLoop=1;jettySize=auto;html=1;fontSize=12;startSize=8;endSize=8;" parent="77e6c97f196da883-2" source="7L1N_wUHKzrK2IpRh_ph-69" target="7L1N_wUHKzrK2IpRh_ph-76" edge="1">
          <mxGeometry relative="1" as="geometry" />
        </mxCell>
        <mxCell id="7L1N_wUHKzrK2IpRh_ph-69" value="划转是否成功" style="rhombus;whiteSpace=wrap;html=1;rounded=1;" parent="77e6c97f196da883-2" vertex="1">
          <mxGeometry x="116" y="2539" width="80" height="80" as="geometry" />
        </mxCell>
        <mxCell id="7L1N_wUHKzrK2IpRh_ph-75" value="" style="edgeStyle=none;curved=1;rounded=0;orthogonalLoop=1;jettySize=auto;html=1;fontSize=12;startSize=8;endSize=8;" parent="77e6c97f196da883-2" source="7L1N_wUHKzrK2IpRh_ph-71" target="7L1N_wUHKzrK2IpRh_ph-74" edge="1">
          <mxGeometry relative="1" as="geometry" />
        </mxCell>
        <mxCell id="7L1N_wUHKzrK2IpRh_ph-71" value="划转保证金失败，请重试" style="whiteSpace=wrap;html=1;rounded=1;" parent="77e6c97f196da883-2" vertex="1">
          <mxGeometry x="296" y="2549" width="120" height="60" as="geometry" />
        </mxCell>
        <mxCell id="7L1N_wUHKzrK2IpRh_ph-74" value="结束" style="whiteSpace=wrap;html=1;rounded=1;" parent="77e6c97f196da883-2" vertex="1">
          <mxGeometry x="536" y="2549" width="120" height="60" as="geometry" />
        </mxCell>
        <mxCell id="7L1N_wUHKzrK2IpRh_ph-83" value="" style="edgeStyle=none;curved=1;rounded=0;orthogonalLoop=1;jettySize=auto;html=1;fontSize=12;startSize=8;endSize=8;" parent="77e6c97f196da883-2" source="7L1N_wUHKzrK2IpRh_ph-76" target="7L1N_wUHKzrK2IpRh_ph-82" edge="1">
          <mxGeometry relative="1" as="geometry" />
        </mxCell>
        <mxCell id="7L1N_wUHKzrK2IpRh_ph-76" value="更新报名记录&lt;div&gt;更新奖池&lt;/div&gt;" style="whiteSpace=wrap;html=1;rounded=1;" parent="77e6c97f196da883-2" vertex="1">
          <mxGeometry x="96" y="2749" width="120" height="60" as="geometry" />
        </mxCell>
        <mxCell id="7L1N_wUHKzrK2IpRh_ph-68" value="" style="edgeStyle=none;curved=1;rounded=0;orthogonalLoop=1;jettySize=auto;html=1;fontSize=12;startSize=8;endSize=8;" parent="77e6c97f196da883-2" source="7L1N_wUHKzrK2IpRh_ph-65" edge="1">
          <mxGeometry relative="1" as="geometry">
            <mxPoint x="1065" y="2404.628482972136" as="targetPoint" />
          </mxGeometry>
        </mxCell>
        <mxCell id="7L1N_wUHKzrK2IpRh_ph-73" value="否" style="text;html=1;align=center;verticalAlign=middle;resizable=0;points=[];autosize=1;strokeColor=none;fillColor=none;fontSize=16;" parent="77e6c97f196da883-2" vertex="1">
          <mxGeometry x="211.5" y="2545.5" width="34" height="31" as="geometry" />
        </mxCell>
        <mxCell id="7L1N_wUHKzrK2IpRh_ph-78" value="是" style="text;html=1;align=center;verticalAlign=middle;resizable=0;points=[];autosize=1;strokeColor=none;fillColor=none;fontSize=16;" parent="77e6c97f196da883-2" vertex="1">
          <mxGeometry x="155.5" y="2652.5" width="34" height="31" as="geometry" />
        </mxCell>
        <mxCell id="5FPc_xpcKpvYvvMMIjn3-5" style="edgeStyle=none;curved=1;rounded=0;orthogonalLoop=1;jettySize=auto;html=1;fontSize=12;startSize=8;endSize=8;" edge="1" parent="77e6c97f196da883-2" source="7L1N_wUHKzrK2IpRh_ph-79">
          <mxGeometry relative="1" as="geometry">
            <mxPoint x="156" y="2368" as="targetPoint" />
          </mxGeometry>
        </mxCell>
        <mxCell id="7L1N_wUHKzrK2IpRh_ph-79" value="初始化报名记录&lt;div&gt;或存在未初始化的报名记录&lt;/div&gt;" style="whiteSpace=wrap;html=1;rounded=1;" parent="77e6c97f196da883-2" vertex="1">
          <mxGeometry x="96" y="2191" width="120" height="60" as="geometry" />
        </mxCell>
        <mxCell id="7L1N_wUHKzrK2IpRh_ph-82" value="结束" style="whiteSpace=wrap;html=1;rounded=1;" parent="77e6c97f196da883-2" vertex="1">
          <mxGeometry x="96" y="2929" width="120" height="60" as="geometry" />
        </mxCell>
        <mxCell id="5FPc_xpcKpvYvvMMIjn3-7" value="" style="edgeStyle=none;curved=1;rounded=0;orthogonalLoop=1;jettySize=auto;html=1;fontSize=12;startSize=8;endSize=8;" edge="1" parent="77e6c97f196da883-2" source="5FPc_xpcKpvYvvMMIjn3-2" target="5FPc_xpcKpvYvvMMIjn3-6">
          <mxGeometry relative="1" as="geometry" />
        </mxCell>
        <mxCell id="5FPc_xpcKpvYvvMMIjn3-2" value="mq异步处理报名" style="rounded=1;whiteSpace=wrap;html=1;" vertex="1" parent="77e6c97f196da883-2">
          <mxGeometry x="96" y="2028" width="120" height="60" as="geometry" />
        </mxCell>
        <mxCell id="5FPc_xpcKpvYvvMMIjn3-6" value="结束" style="whiteSpace=wrap;html=1;rounded=1;" vertex="1" parent="77e6c97f196da883-2">
          <mxGeometry x="336" y="2028" width="120" height="60" as="geometry" />
        </mxCell>
        <mxCell id="77e6c97f196da883-3" value="营销" style="swimlane;html=1;startSize=20;" parent="77e6c97f196da883-1" vertex="1">
          <mxGeometry x="688" y="20" width="276" height="3066" as="geometry" />
        </mxCell>
        <mxCell id="7L1N_wUHKzrK2IpRh_ph-20" value="查询用户的总代uid" style="whiteSpace=wrap;html=1;rounded=1;" parent="77e6c97f196da883-3" vertex="1">
          <mxGeometry x="70" y="546" width="120" height="60" as="geometry" />
        </mxCell>
        <mxCell id="77e6c97f196da883-4" value="合约" style="swimlane;html=1;startSize=20;" parent="77e6c97f196da883-1" vertex="1">
          <mxGeometry x="964" y="20" width="278" height="3066" as="geometry" />
        </mxCell>
        <mxCell id="7L1N_wUHKzrK2IpRh_ph-45" value="合约持仓接口" style="whiteSpace=wrap;html=1;rounded=1;" parent="77e6c97f196da883-4" vertex="1">
          <mxGeometry x="75" y="1331" width="120" height="60" as="geometry" />
        </mxCell>
        <mxCell id="7L1N_wUHKzrK2IpRh_ph-56" value="合约保证金可划转金额" style="whiteSpace=wrap;html=1;rounded=1;" parent="77e6c97f196da883-4" vertex="1">
          <mxGeometry x="93" y="1708" width="120" height="60" as="geometry" />
        </mxCell>
        <mxCell id="7L1N_wUHKzrK2IpRh_ph-67" value="合约划转&lt;div&gt;支持幂等&lt;/div&gt;&lt;div&gt;支持区分是业务失败还是网络失败&lt;/div&gt;" style="whiteSpace=wrap;html=1;rounded=1;" parent="77e6c97f196da883-4" vertex="1">
          <mxGeometry x="104" y="2375" width="120" height="60" as="geometry" />
        </mxCell>
        <mxCell id="7L1N_wUHKzrK2IpRh_ph-21" value="" style="edgeStyle=none;curved=1;rounded=0;orthogonalLoop=1;jettySize=auto;html=1;fontSize=12;startSize=8;endSize=8;" parent="77e6c97f196da883-1" source="7L1N_wUHKzrK2IpRh_ph-6" target="7L1N_wUHKzrK2IpRh_ph-20" edge="1">
          <mxGeometry relative="1" as="geometry" />
        </mxCell>
        <mxCell id="7L1N_wUHKzrK2IpRh_ph-46" value="" style="edgeStyle=none;curved=1;rounded=0;orthogonalLoop=1;jettySize=auto;html=1;fontSize=12;startSize=8;endSize=8;" parent="77e6c97f196da883-1" source="7L1N_wUHKzrK2IpRh_ph-43" target="7L1N_wUHKzrK2IpRh_ph-45" edge="1">
          <mxGeometry relative="1" as="geometry" />
        </mxCell>
        <mxCell id="7L1N_wUHKzrK2IpRh_ph-57" value="" style="edgeStyle=none;curved=1;rounded=0;orthogonalLoop=1;jettySize=auto;html=1;fontSize=12;startSize=8;endSize=8;" parent="77e6c97f196da883-1" source="7L1N_wUHKzrK2IpRh_ph-54" target="7L1N_wUHKzrK2IpRh_ph-56" edge="1">
          <mxGeometry relative="1" as="geometry" />
        </mxCell>
        <mxCell id="7L1N_wUHKzrK2IpRh_ph-8" value="是" style="text;html=1;align=center;verticalAlign=middle;resizable=0;points=[];autosize=1;strokeColor=none;fillColor=none;fontSize=16;" parent="1" vertex="1">
          <mxGeometry x="212.5" y="420.5" width="34" height="31" as="geometry" />
        </mxCell>
        <mxCell id="7L1N_wUHKzrK2IpRh_ph-13" value="是" style="text;html=1;align=center;verticalAlign=middle;resizable=0;points=[];autosize=1;strokeColor=none;fillColor=none;fontSize=16;" parent="1" vertex="1">
          <mxGeometry x="488.5" y="300.5" width="34" height="31" as="geometry" />
        </mxCell>
        <mxCell id="7L1N_wUHKzrK2IpRh_ph-18" value="否" style="text;html=1;align=center;verticalAlign=middle;resizable=0;points=[];autosize=1;strokeColor=none;fillColor=none;fontSize=16;" parent="1" vertex="1">
          <mxGeometry x="414.5" y="393.5" width="34" height="31" as="geometry" />
        </mxCell>
        <mxCell id="7L1N_wUHKzrK2IpRh_ph-26" value="否" style="text;html=1;align=center;verticalAlign=middle;resizable=0;points=[];autosize=1;strokeColor=none;fillColor=none;fontSize=16;" parent="1" vertex="1">
          <mxGeometry x="282.5" y="781.5" width="34" height="31" as="geometry" />
        </mxCell>
        <mxCell id="7L1N_wUHKzrK2IpRh_ph-33" value="是" style="text;html=1;align=center;verticalAlign=middle;resizable=0;points=[];autosize=1;strokeColor=none;fillColor=none;fontSize=16;" parent="1" vertex="1">
          <mxGeometry x="288.5" y="989.5" width="34" height="31" as="geometry" />
        </mxCell>
        <mxCell id="7L1N_wUHKzrK2IpRh_ph-40" value="否" style="text;html=1;align=center;verticalAlign=middle;resizable=0;points=[];autosize=1;strokeColor=none;fillColor=none;fontSize=16;" parent="1" vertex="1">
          <mxGeometry x="282.5" y="1185.5" width="34" height="31" as="geometry" />
        </mxCell>
        <mxCell id="7L1N_wUHKzrK2IpRh_ph-53" value="是" style="text;html=1;align=center;verticalAlign=middle;resizable=0;points=[];autosize=1;strokeColor=none;fillColor=none;fontSize=16;" parent="1" vertex="1">
          <mxGeometry x="272.5" y="1570.5" width="34" height="31" as="geometry" />
        </mxCell>
        <mxCell id="7L1N_wUHKzrK2IpRh_ph-62" value="否" style="text;html=1;align=center;verticalAlign=middle;resizable=0;points=[];autosize=1;strokeColor=none;fillColor=none;fontSize=16;" parent="1" vertex="1">
          <mxGeometry x="281.5" y="1944.5" width="34" height="31" as="geometry" />
        </mxCell>
      </root>
    </mxGraphModel>
  </diagram>
</mxfile>
